/* XPM */
static char *d2394eb6289e4cae84ab743608cf2a52gMbFGx5fL1XjVkof[] = {
/* columns rows colors chars-per-pixel */
"32 32 15 1 ",
"  c #250101",
". c #001C30",
"X c gray13",
"o c #2C2C2C",
"O c #353333",
"+ c #7D0505",
"@ c #02365B",
"# c #074470",
"$ c #B10A0A",
"% c #C65656",
"& c #CA6666",
"* c #0A6BB1",
"= c #138B93",
"- c #3FBBC4",
"; c #EFEFEF",
/* pixels */
"OOOOOOOOOOOOOOooXooOOOOOOOOOOOOO",
"OOOOOOOOOOOOOOooXooOOOOOOOOOOOOO",
"OOOOOOOOOOOOOOooX.oOOOOOOOOOOOOO",
"OOOOOOOOOOOOOOoo...OOOOOOOOOOOOO",
"OOOOOOOOOOOOOOoo.@.OOOOOOOOOOOOO",
"OOOOOOOOOOOOOoo..#.OOOOOOOOOOOOO",
"OOOOOOOOOOOOOoo.@#.OOOOOOOOOOOOO",
"OOOOOOO    OOo..@#@.OOOOOOOOOOOO",
"OOOOOO  === Oo.@##@.OOoOOOOOOOOO",
"OOOOOO +++- o..@##@..oXoOOOOOOOO",
"OOOOOO $$$--..@##*#@.Xoooooooooo",
"oooooo $$$$..@##**#@..oooooooooo",
"ooooooo $...@##***##@..XX     XX",
"XXXXXXX...@##******##@..o ++= oX",
"ooooo..@###*********##@..$$$-  o",
"oooo..@##************##@..$--  o",
"OOO.@###**************##@@..- OO",
"OO..@##****************###@.  OO",
"OO.@##******************###@.OOO",
"OO.@##*******************##@.OOO",
"OO.@##****.***********.***##@.OO",
"OO.@##*****..*******..****##@.OO",
"OO.@##****.....***.....***##@.OO",
"OO..@#***.;;;;;.*.;;;;;.**##@.OO",
"OOO.@##**.;...;.*.;...;.**##@.OO",
"OOO..@##**.....***.....***##@.OO",
"OOOO..@#%%**************%%#@.OOO",
"OOOOO.@@%%%************%%%@..OOO",
"OOOOO....%&&&********&&&%@..OOOO",
"OOOOOOOO....&&&&&&&&&&&&...OOOOO",
"OOOOOOOOOOOO............OOOOOOOO",
"OOOOOOOOOOOOooXXXooOOOOOOOOOOOOO"
};
