/* XPM */
static char *a9f87474d0024395f5bb0aee44800301znbDPc9U887W7vcf[] = {
/* columns rows colors chars-per-pixel */
"32 32 10 1 ",
"  c #182C02",
". c gray13",
"X c #2C2C2C",
"o c #353333",
"O c #3F6C0E",
"+ c #C65656",
"@ c #CA6666",
"# c #4C8012",
"$ c #5E9D1A",
"% c #EFEFEF",
/* pixels */
"ooooooooooooooXX.XXooooooooooooo",
"ooooooooooooooXX.XXooooooooooooo",
"ooooooooooooooXX. Xooooooooooooo",
"ooooooooooooooXX   ooooooooooooo",
"ooooooooooooooXX O ooooooooooooo",
"oooooooooooooXX  # ooooooooooooo",
"oooooooooooooXX O# ooooooooooooo",
"oooooooooooooX  O#O oooooooooooo",
"oooooooooooooX O##O ooXooooooooo",
"ooooooooooooX  O##O  X.Xoooooooo",
"oooooooooooX  O##$#O .XXXXXXXXXX",
"XXXXXXXXXXX  O##$$#O  XXXXXXXXXX",
"XXXXXXXXX   O##$$$##O  .........",
".......   O##$$$$$$##O  XXXXXXX.",
"XXXXX  O###$$$$$$$$$##O  XXXXXXX",
"XXXX  O##$$$$$$$$$$$$##O  oooooX",
"ooo O###$$$$$$$$$$$$$$##OO  oooo",
"oo  O##$$$$$$$$$$$$$$$$###O  ooo",
"oo O##$$$$$$$$$$$$$$$$$$##O  ooo",
"oo O##$$$$$$$$$$$$$$$$$$$# % ooo",
"oo O##$$$$$$$$$$$$$$$$$$$$ %  oo",
"oo O##$$$$$$$$$$$$$$$$$  $#   oo",
"oo O##$$$$$$$$$$$$$$$$ %  $#O oo",
"oo  O#$$$$$$$$$$$$$$$ %   $#O oo",
"ooo O##$$$$$$$$$$$$$$ %  $$#+ oo",
"ooo  O##$$$$$$$$$$$$$$  $$#@@ oo",
"oooo  O###$$$$$$$$$$$$$$$#@@ ooo",
"ooooo OOO####$$$$$$$+@@@@@@  ooo",
"ooooo    OOO########+@@@@@  oooo",
"oooooooo    OOOOOOOOOOOO   ooooo",
"oooooooooooo            oooooooo",
"ooooooooooooXX...XXooooooooooooo"
};
