/* XPM */
static char *_a5eef0a99244c6088dd3e54e061f2dcezy3ZTSHj8Nfiwk3[] = {
/* columns rows colors chars-per-pixel */
"64 64 2 1 ",
"  c #521313",
". c #135250",
/* pixels */
"                                                                ",
"                                                                ",
"                                                                ",
"                                                                ",
"                   .......                                      ",
"                 ..........                                     ",
"                ...........                                     ",
"              ..............                                    ",
"             ...............             ..                     ",
"             ...............            .....                   ",
"             ...............           ........                 ",
"             ...............           .........                ",
"             ...............          ..........                ",
"             ...............         ...........                ",
"             ...............        ............                ",
"             ...............       .............                ",
"             ...............      ..............                ",
"              ..............     ...............                ",
"              ..............   .................                ",
"              ............... .................                 ",
"              .................................                 ",
"              ................................                  ",
"              ................................                  ",
"              ...............................                   ",
"               ..............................                   ",
"               .............................                    ",
"               ............................                     ",
"               ...........................                      ",
"               ..........................                       ",
"               ..........................                       ",
"               .........................                        ",
"                ......................                          ",
"                ....................                            ",
"                ...................                             ",
"                ..................                              ",
"                ....................                            ",
"                 ...................                            ",
"                 .....................                          ",
"                 .......................                        ",
"                 ........................                       ",
"                 ..........................                     ",
"                 ...........................                    ",
"                 ............................                   ",
"                 .............................                  ",
"                  ..............................                ",
"                  ...............................               ",
"                  ................................              ",
"                   ................................             ",
"                   ................................             ",
"                   ..............  .................            ",
"                   ..............  ..................           ",
"                   ............... ...................          ",
"                    .............. ...................          ",
"                    ..............   .................          ",
"                    ..............   .................          ",
"                     .............    ...............           ",
"                     ..............   ............              ",
"                      .............    ........                 ",
"                       ............    .......                  ",
"                       ............     ....                    ",
"                           .......                              ",
"                                                                ",
"                                                                ",
"                                                                "
};
